<?xml version="1.0" encoding="utf-8"?>
<!-- Generator: Adobe Illustrator 19.0.0, SVG Export Plug-In . SVG Version: 6.00 Build 0)  -->
<svg version="1.1" id="Calque_1" xmlns="http://www.w3.org/2000/svg" xmlns:xlink="http://www.w3.org/1999/xlink" x="0px" y="0px"
	 viewBox="-112 114 24 24" style="enable-background:new -112 114 24 24;" xml:space="preserve">

<path class="st0" d="M-93,117h-2v-1c0-0.6-0.4-1-1-1s-1,0.4-1,1v1h-6v-1c0-0.6-0.4-1-1-1s-1,0.4-1,1v1h-2c-1.7,0-3,1.3-3,3v14
	c0,1.7,1.3,3,3,3h14c1.7,0,3-1.3,3-3v-14C-90,118.3-91.3,117-93,117z M-107,119h2v1c0,0.6,0.4,1,1,1s1-0.4,1-1v-1h6v1
	c0,0.6,0.4,1,1,1s1-0.4,1-1v-1h2c0.6,0,1,0.4,1,1v3h-16v-3C-108,119.4-107.6,119-107,119z M-93,135h-14c-0.6,0-1-0.4-1-1v-9h16v9
	C-92,134.6-92.4,135-93,135z"/>
</svg>
