<?xml version="1.0" encoding="utf-8"?>
<!-- Generator: Adobe Illustrator 19.0.0, SVG Export Plug-In . SVG Version: 6.00 Build 0)  -->
<svg version="1.1" id="Calque_1" xmlns="http://www.w3.org/2000/svg" xmlns:xlink="http://www.w3.org/1999/xlink" x="0px" y="0px"
	 viewBox="381 -272.8 862.7 644.8" style="enable-background:new 381 -272.8 862.7 644.8;" xml:space="preserve">
<style type="text/css">
	.st0{fill:#9E616A;}
	.st1{fill:#2F2E41;}
	.st2{fill:#FFB6B6;}
	.st3{fill:#E6E6E6;}
	.st4{fill:#FFFFFF;}
	.st5{fill:#FFB8B8;}
	.st6{fill:#CCCCCC;}
	.st7{fill:#F72C25;}
	.st8{fill:#3F3D56;}
	.st9{fill:#F2F2F2;}
	.st10{fill:#6C63FF;}
</style>
<polygon class="st0" points="1010.9,339.9 993.8,339.9 985.6,273.6 1010.9,273.6 "/>
<path class="st1" d="M1020,369.6h-12.3l-2.2-11.6l-5.6,11.6h-32.6c-4.1,0-7.3-3.3-7.3-7.3c0-2.4,1.2-4.7,3.2-6l26.1-18v-11.7
	l27.4,1.6L1020,369.6z"/>
<polygon class="st0" points="1112.9,318.2 1099.1,328.4 1053.1,280.2 1073.4,265.1 "/>
<path class="st1" d="M1137.9,336.7l-9.9,7.3l-8.7-8l2.4,12.7l-26.2,19.5c-3.3,2.4-7.9,1.7-10.3-1.5c-1.4-1.9-1.8-4.5-1.1-6.7
	l10.2-30l-7-9.4l23-15.1L1137.9,336.7z"/>
<path class="st1" d="M1030.9-1.7c0,0,32.6,28.1,17.5,108.4l-18.3,78.6l59.8,99.3l-19.1,23.2l-77.8-107.4l-28.2-66.1L957,16.4
	L1030.9-1.7z"/>
<polygon class="st1" points="980.4,153 978.5,183.3 984.5,312.6 1012.7,307.7 1018.1,215.6 "/>
<polygon class="st2" points="618.4,355.4 633.8,355.4 641.1,296.2 618.4,296.2 "/>
<path class="st1" d="M614.5,350.4l4.3,0l16.9-6.9l9,6.9h0c10.6,0,19.3,8.6,19.3,19.3v0.6l-49.5,0L614.5,350.4z"/>
<polygon class="st2" points="677.9,345.8 692.9,349.1 713.1,293 691,288 "/>
<path class="st1" d="M675.2,340l4.2,1l18-3l7.3,8.7l0,0c10.4,2.3,16.9,12.7,14.5,23l-0.1,0.6l-48.3-10.9L675.2,340z"/>
<path class="st1" d="M599-6.6c-7.2,21.7-6.4,45.3,1.7,70.6l3.5,142.4c0,0-5.2,93.4,11.6,126.2h24.3l12.1-134.8l1.5-90.4l52.2,76.3
	l-33.2,146.7l30,2.7l53.9-159.2L690,19.4L599-6.6z"/>
<path class="st3" d="M879.7-68.4c18.6-16.8,46.3-25.2,69.5-15.8C925.4-71,907-49.7,897.3-24.2c-3.7,9.8-6.8,21.2-15.9,26.4
	c-5.7,3.3-12.7,3.4-19,1.9c-6.3-1.6-12.2-4.8-17.9-7.9l-1.6,0C850.2-27.9,861.1-51.6,879.7-68.4z"/>
<path class="st4" d="M949.1-83.7c-20.6,2.7-39.8,11.7-54.9,25.9c-3.3,3-6.1,6.5-8.3,10.4c-2,3.8-3,8.2-2.8,12.5
	c0.1,4.1,0.7,8.2-0.2,12.2c-1,4.1-3.7,7.7-7.4,9.7c-4.5,2.6-9.8,3.4-14.9,4.1c-5.7,0.7-11.6,1.3-16.5,4.5c-0.6,0.4-1.2-0.6-0.6-0.9
	c8.6-5.6,19.4-3.5,28.6-7.2c4.3-1.7,8.1-4.8,9.5-9.4c1.2-4,0.6-8.3,0.5-12.4c-0.3-4.2,0.5-8.5,2.3-12.3c2-4,4.7-7.6,7.9-10.7
	c7.1-7,15.4-12.9,24.3-17.4c10.2-5.2,21.2-8.6,32.6-10.1C949.8-84.9,949.8-83.8,949.1-83.7L949.1-83.7z"/>
<path class="st4" d="M898.8-62.6c-4.2-5.9-3.5-14,1.6-19.1c0.5-0.5,1.3,0.3,0.8,0.8c-4.8,4.7-5.4,12.3-1.5,17.8
	C900.2-62.6,899.2-62,898.8-62.6L898.8-62.6z"/>
<path class="st4" d="M882.7-36.9c7.1,1.3,14.4-0.2,20.4-4.1c0.6-0.4,1.2,0.6,0.6,0.9c-6.3,4-13.9,5.5-21.2,4.2
	C881.7-36,882-37,882.7-36.9L882.7-36.9z"/>
<path class="st4" d="M926.8-78.4c1.1,2.6,3.5,4.4,6.3,4.9c0.7,0.1,0.4,1.2-0.3,1.1c-3.1-0.5-5.7-2.6-6.9-5.4
	c-0.1-0.3-0.1-0.6,0.2-0.8C926.3-78.8,926.6-78.7,926.8-78.4L926.8-78.4z"/>
<path class="st3" d="M974.8-3.3c-0.4-0.1-0.9-0.1-1.3-0.2c-5.9-0.8-11.9-1.1-17.9-0.9c-0.5,0-0.9,0-1.4,0
	c-14.4,0.6-28.5,3.9-41.8,9.6c-5.3,2.3-10.3,5-15.2,8.1c-6.7,4.2-13.6,9.4-21.1,11.1c-0.8,0.2-1.6,0.3-2.4,0.4L843-1.9
	c0-0.1-0.1-0.2-0.1-0.3l-1.3-1c0.2-0.2,0.5-0.4,0.7-0.5c0.1-0.1,0.3-0.2,0.4-0.3c0.1-0.1,0.2-0.1,0.3-0.2c0,0,0.1,0,0.1-0.1
	c0.1-0.1,0.2-0.1,0.2-0.2c1.4-1,2.8-2,4.2-3c0,0,0,0,0,0c10.8-7.5,22.4-13.8,34.6-18.6c0.4-0.1,0.7-0.3,1.1-0.4
	c5.5-2,11.2-3.6,16.9-4.8c3.2-0.6,6.3-1.1,9.6-1.3c8.3-0.7,16.6-0.1,24.7,1.8c16.1,3.7,30.9,12.6,39.7,26.4
	C974.4-4,974.6-3.6,974.8-3.3z"/>
<path class="st4" d="M974.4-2.9c-18-10.3-38.8-14.6-59.5-12.4c-4.4,0.4-8.8,1.5-12.9,3.3c-3.9,1.8-7.3,4.7-9.8,8.3
	c-2.4,3.3-4.4,7-7.5,9.6c-3.3,2.7-7.6,3.9-11.8,3.3c-5.2-0.7-9.9-3.1-14.3-5.7c-5-2.9-10.1-5.9-15.9-6.3C842-3,842.1-4.1,842.8-4
	c10.2,0.7,17.6,8.9,27.2,11.5c4.5,1.2,9.3,1.1,13.2-1.8c3.4-2.5,5.5-6.3,7.8-9.6c2.4-3.5,5.5-6.4,9.3-8.5c4-2,8.3-3.2,12.7-3.7
	c9.9-1.3,20-1.1,29.9,0.7c11.3,2,22.1,5.9,32.1,11.6C975.7-3.5,975-2.6,974.4-2.9L974.4-2.9z"/>
<path class="st4" d="M921.6-16.4c0.2-7.3,5.6-13.3,12.8-14.3c0.7-0.1,0.9,1,0.2,1.1c-6.7,0.9-11.7,6.5-11.9,13.3
	C922.6-15.6,921.5-15.7,921.6-16.4L921.6-16.4z"/>
<path class="st4" d="M893.2-5.6c4.9,5.3,11.6,8.5,18.7,9c0.7,0.1,0.6,1.2-0.1,1.1c-7.4-0.6-14.4-3.9-19.5-9.4
	C891.9-5.4,892.8-6.1,893.2-5.6L893.2-5.6z"/>
<path class="st4" d="M953.4-12.2c-0.6,2.7,0.1,5.6,2.1,7.7c0.5,0.5-0.4,1.2-0.9,0.7c-2.1-2.3-3-5.5-2.3-8.5c0-0.3,0.3-0.5,0.6-0.5
	C953.3-12.8,953.5-12.5,953.4-12.2L953.4-12.2z"/>
<path class="st3" d="M432.3,354.3c-1.5,5.4-5.3,10-9.9,13.3c-0.8,0.5-1.5,1-2.3,1.5c-0.2,0.1-0.5,0.3-0.7,0.4
	c-0.3,0.2-0.5,0.3-0.8,0.5h-21.6c-0.4-0.8-0.8-1.6-1.1-2.4c-9.3-19.5-15.8-40.5-14.7-61.9c0.4-8.3,2.2-16.5,5.2-24.3
	c5.9-15.5,16.8-28.9,31.7-35.6c0.4-0.2,0.8-0.3,1.1-0.5c-0.1,0.4-0.2,0.8-0.4,1.3c-1.6,5.8-2.7,11.6-3.4,17.6
	c-0.1,0.5-0.1,0.9-0.1,1.4c-1.4,14.3-0.2,28.8,3.7,42.7c0,0,0,0.1,0,0.1c0.9,3.1,1.8,6.1,3,9.1c0.9,2.3,1.8,4.7,2.9,7
	C429.2,334,435,344.2,432.3,354.3z"/>
<path class="st4" d="M419.4,245.8c-0.2,0.3-0.4,0.5-0.6,0.8c-4.4,5.8-8.1,12.1-11.1,18.8c-0.2,0.3-0.3,0.7-0.4,1
	c-4.1,9.3-6.7,19.1-7.8,29.2c0,0.1,0,0.1,0,0.2c-0.3,2.4-0.4,4.7-0.5,7.1c-0.2,4.5,0.3,8.9,1.4,13.2c1.1,3.5,2.9,6.7,5.5,9.4
	c0.3,0.3,0.5,0.5,0.8,0.8c0.2,0.2,0.4,0.4,0.6,0.6c2,1.9,4.2,3.7,6.1,5.8c0.9,0.9,1.7,1.9,2.4,3c2.2,3.6,2.8,8,1.6,12.1
	c-1.4,5.1-4.5,9.3-7.6,13.4c-1.6,2-3.2,4.1-4.6,6.3c-0.5,0.8-1,1.6-1.4,2.4h-1.3c0.4-0.8,0.9-1.6,1.4-2.4c3.7-5.8,8.8-10.7,11.5-17
	c1.8-4.3,2.4-9.1,0.1-13.3c-0.7-1.2-1.5-2.4-2.4-3.4c-1.8-2.1-4-3.8-6-5.7c-0.5-0.5-1-1-1.5-1.5c-2.5-2.5-4.4-5.6-5.6-8.9
	c-1.4-4.2-2-8.7-1.9-13.1c0-2.8,0.1-5.7,0.4-8.5c0-0.4,0.1-0.7,0.1-1.1c2-17.9,8.8-34.9,19.7-49.2c0.2-0.3,0.4-0.5,0.6-0.8
	C419,244.5,419.8,245.3,419.4,245.8z"/>
<path class="st4" d="M398.7,296.3c-7.2-1.2-12.4-7.4-12.4-14.7c0-0.3,0.3-0.5,0.6-0.5c0.3,0,0.5,0.2,0.5,0.5
	c0,6.8,4.8,12.5,11.5,13.6C399.7,295.3,399.4,296.4,398.7,296.3L398.7,296.3z"/>
<path class="st4" d="M405.5,325.8c5.9-4.1,10-10.3,11.5-17.3c0.2-0.7,1.2-0.4,1.1,0.3c-1.6,7.3-5.9,13.7-12,18
	C405.5,327.2,404.9,326.2,405.5,325.8L405.5,325.8z"/>
<path class="st4" d="M407.3,265.3c2.6,1,5.6,0.7,7.9-1c0.6-0.4,1.1,0.5,0.6,0.9c-2.5,1.8-5.8,2.2-8.7,1.1c-0.3-0.1-0.5-0.4-0.4-0.7
	C406.7,265.4,407,265.2,407.3,265.3z"/>
<path class="st3" d="M494.4,284.5c-0.4,0.3-0.7,0.5-1.1,0.8c-4.7,3.6-9.2,7.6-13.3,12c-0.3,0.3-0.6,0.7-1,1l0,0
	c-9.7,10.5-17.4,22.8-22.7,36.1l0,0.1c0,0,0,0,0,0.1c-2.1,5.3-3.8,10.8-5,16.4c-1.2,5.5-2.2,11.3-4.1,16.6c-0.3,0.8-0.6,1.6-0.9,2.4
	h-44.5c0.1-0.8,0.3-1.6,0.5-2.4c2.3-11.6,5.8-22.9,10.5-33.7c0.2-0.4,0.3-0.7,0.5-1.1c2.4-5.3,5.3-10.5,8.6-15.3c0,0,0,0,0,0
	c0,0,0,0,0,0c1.8-2.7,3.7-5.2,5.8-7.7c5.3-6.4,11.7-11.8,18.7-16.2c0,0,0.1,0,0.1-0.1c14-8.7,30.7-12.9,46.6-9.3h0
	C493.6,284.3,494,284.4,494.4,284.5z"/>
<path class="st4" d="M494.4,285c-0.3,0.1-0.7,0.2-1,0.3c-7,2-13.8,4.8-20.2,8.3c-0.3,0.2-0.6,0.3-1,0.5
	c-8.8,4.9-16.9,11.2-23.8,18.6c0,0,0,0,0,0c-0.1,0.1-0.2,0.2-0.2,0.3c-1.6,1.7-3.1,3.5-4.6,5.3c-2.9,3.4-5.2,7.3-6.8,11.4
	c-1.3,3.5-1.7,7.2-1.3,10.8c0,0.4,0.1,0.7,0.1,1.1c0,0.3,0.1,0.6,0.1,0.9c0.7,4,1.8,8,1.5,12.1c-0.4,4.2-2.6,8.1-6,10.6
	c-1.2,0.9-2.4,1.7-3.7,2.3c-1.9,1-3.8,1.8-5.8,2.4h-3.9c0.5-0.2,1-0.3,1.6-0.5c1.9-0.5,3.7-1.2,5.5-1.9c1-0.4,2-0.9,3-1.5
	c4-2.3,7.4-5.8,8.1-10.6c0.6-4.1-0.6-8.3-1.3-12.3c-0.1-0.7-0.2-1.4-0.3-2.1c-0.5-3.5-0.2-7.1,0.9-10.5c1.4-4.2,3.6-8.2,6.4-11.7
	c1.7-2.3,3.5-4.5,5.5-6.5c0.2-0.3,0.5-0.5,0.8-0.8c7.1-7.4,15.2-13.8,24.2-18.7h0c6.7-3.7,13.8-6.6,21.1-8.7h0
	c0.3-0.1,0.7-0.2,1-0.3C494.9,283.7,495,284.8,494.4,285z"/>
<path class="st4" d="M447.5,312.9c-5-5.3-5.4-13.4-1-19.1c0.4-0.6,1.3,0.1,0.9,0.6c-4.1,5.4-3.7,12.9,1,17.8
	C448.8,312.7,448,313.4,447.5,312.9L447.5,312.9z"/>
<path class="st4" d="M435.1,340.5c7.2,0.3,14.2-2.2,19.6-6.9c0.5-0.5,1.2,0.4,0.7,0.9c-5.7,4.9-13,7.4-20.4,7.1
	C434.3,341.6,434.4,340.5,435.1,340.5z"/>
<path class="st4" d="M473,293.3c1.5,2.4,4.1,3.9,6.9,4c0.7,0,0.6,1.1-0.1,1.1c-3.1-0.1-6-1.7-7.6-4.4c-0.2-0.2-0.1-0.6,0.1-0.8
	C472.5,293,472.8,293,473,293.3z"/>
<path class="st5" d="M837.4-99.7c-3.9,5.1-11.2,6.1-16.3,2.2c-0.5-0.4-1.1-0.9-1.5-1.4l-37.8,16.4l3.7-21.1l35.3-12.4
	c5-4,12.4-3.2,16.4,1.8C840.6-109.9,840.7-103.9,837.4-99.7z"/>
<path class="st3" d="M812.2-93.1L724.4-54l-0.2-0.1L624.1-89.7c-15.5-8.1-22-26.8-14.8-42.8l0,0c7.5-16.6,27-23.9,43.6-16.4
	c1.2,0.5,2.3,1.1,3.4,1.8l74.5,44.9l72.2-9.4L812.2-93.1z"/>
<path class="st6" d="M1243.7,370.8c0,0.7-0.5,1.2-1.2,1.2c0,0,0,0,0,0H382.2c-0.7,0-1.2-0.5-1.2-1.2s0.5-1.2,1.2-1.2h860.3
	C1243.2,369.6,1243.7,370.1,1243.7,370.8C1243.7,370.8,1243.7,370.8,1243.7,370.8z"/>
<path class="st3" d="M694.3,24L605.8,9.9C597,7,592.1-2.5,594.9-11.4c0.3-0.8,0.6-1.6,1-2.4l4-8l-1.6-84.3
	c-0.4-22.3,11.2-43.2,30.3-54.7l8.6-5.2l4.4-11.1l40.2,1l0.1,14.5l14.4,23l0,0.1l-0.9,125l-4,12.9l6,15L694.3,24z"/>
<circle class="st5" cx="665.5" cy="-227.4" r="36.5"/>
<path class="st1" d="M627.4-219.4c-1.1-4.6-0.6-11.1,0-15.7c1.6-12.1,8.3-23.6,18.6-30.5c1.9-1.5,4.2-2.4,6.7-2.6
	c2.4-0.1,5,1.2,5.8,3.5c1.2-3.1,3.7-5.5,6.8-6.7c3.1-1.2,6.4-1.6,9.6-1.3c12.9,1.1,24.2,9.1,29.4,21c1,2.3,3.7-6.2,4.9-4.1
	c1.1,2.3,3.1,4,5.5,4.9c2.4,0.7,3.4,10.7,4.4,8.3c2.4,5.6-0.2,12.2-5.8,14.6c-1.5,0.7-3.2,1-4.8,0.9c-2.5-0.1-4.8-1-7.3-1.4
	c-8.7-1.4-18,4.9-19.8,13.6c-0.7-2.5-1.7-4.9-3.2-7c-1.5-2.2-3.9-3.5-6.5-3.6c-2.5,0.1-4.7,1.7-6.3,3.6s-2.8,4.1-4.4,6
	c-4.8,5.5-11.2,18.4-18,17.4C637.7-199.3,628.9-213.1,627.4-219.4z"/>
<path class="st4" d="M886.4-58.2c0.5-3.4-1.5-6.8-4.8-7.9l-98.4-32.8c-0.9-0.3-1.9-0.4-2.9-0.3l-24.7,2.3l-14.2,1.3l-26.1,2.5
	c-3.2,0.3-5.9,2.8-6.4,6L695.6-4.2c-0.5,3.3,1.3,6.6,4.5,7.8l99.4,38.4c0.5,0.2,1,0.3,1.4,0.4c0.7,0.1,1.5,0.1,2.2,0l64.3-9.5
	c3.1-0.5,5.6-2.9,6-6L886.4-58.2z"/>
<path class="st7" d="M702.4-2.3l99.4,38.4c0.1,0.1,0.3,0.1,0.5,0.1l64.2-9.5c0.4-0.1,0.7-0.4,0.8-0.8l12.9-85.1
	c0.1-0.4-0.2-0.8-0.6-1l-0.7-0.2l-97.8-32.5c0,0-0.1,0-0.1,0c-0.1,0-0.2,0-0.2,0l-60.2,5.7l-4.8,0.4c-0.4,0-0.7,0.3-0.8,0.7
	L701.8-3.3C701.7-2.8,702-2.4,702.4-2.3z"/>
<path class="st1" d="M720.6-87.3l60.2-5.7c0.1,0,0.2,0,0.2,0c0,0,0.1,0,0.1,0l97.8,32.5l-25.8,2.7l-9.7,1L816-53.7
	c-0.1,0-0.2,0-0.2,0c0,0-0.1,0-0.2,0L720.6-87.3z"/>
<path class="st8" d="M700.1,3.6l99.4,38.4c0.5,0.2,1,0.3,1.5,0.4c0.7,0.1,1.5,0.1,2.2,0l64.2-9.5c3.1-0.5,5.6-2.9,6-6l12.9-85.1
	c0.2-1.3,0-2.5-0.4-3.7c-0.1-0.2-0.1-0.3-0.2-0.5c-0.5-1.1-1.3-2-2.3-2.7c-0.6-0.4-1.2-0.7-1.9-1l-0.1,0l-98.3-32.7
	c-0.4-0.1-0.8-0.2-1.2-0.3c-0.6-0.1-1.1-0.1-1.7,0l-24.7,2.3l-14.2,1.4l-26.1,2.5c-1.1,0.1-2.1,0.4-3,1c-0.1,0-0.1,0.1-0.2,0.1
	c0,0-0.1,0.1-0.1,0.1c-1.6,1.1-2.7,2.8-3,4.8L695.6-4.2C695.1-0.9,697,2.3,700.1,3.6z M710.7-86.8c0.2-1,0.6-1.9,1.3-2.7
	c0.2-0.2,0.4-0.5,0.7-0.7c0.7-0.5,1.5-0.9,2.3-1.1c0.2,0,0.3-0.1,0.5-0.1l44-4.2l21-2c0.1,0,0.3,0,0.4,0c0.3,0,0.6,0,0.9,0.1
	c0.3,0,0.6,0.1,0.8,0.2L881-64.4c0.1,0,0.1,0.1,0.2,0.1c0.9,0.3,1.7,0.9,2.3,1.7c0.9,1.2,1.4,2.7,1.1,4.1l-12.9,85.1
	c-0.3,2.3-2.2,4.2-4.5,4.5l-64.3,9.5c-0.9,0.1-1.9,0-2.7-0.3L700.8,1.9C698.4,1,697-1.5,697.4-4L710.7-86.8z"/>
<path class="st8" d="M711.7-91.4c0.1-0.2,0.1-0.3,0.3-0.4c0,0,0.1-0.1,0.1-0.1c0,0,0.1,0,0.1-0.1c0.2-0.1,0.4-0.1,0.6,0l2.1,0.7
	L816-55.5l23.7-2.5l13.2-1.4l28-3l2.5-0.3l0.5-0.1c0.4,0,0.8,0.2,1,0.7c0,0,0,0.1,0,0.1c0,0.4-0.2,0.8-0.6,0.9
	c-0.1,0-0.2,0.1-0.2,0.1l-3.4,0.4l-27.6,2.9l-9.7,1L816-53.7c-0.1,0-0.2,0-0.2,0c0,0-0.1,0-0.2,0l-103-36.3l-0.3-0.1
	c-0.1,0-0.2-0.1-0.2-0.1C711.7-90.6,711.6-91,711.7-91.4z"/>
<path class="st8" d="M801.3,42.6c-0.5-0.1-0.8-0.5-0.7-1L815-54.8c0.1-0.5,0.5-0.8,1-0.8l0,0c0.5,0.1,0.8,0.5,0.7,1l-14.5,96.3
	C802.2,42.3,801.8,42.7,801.3,42.6L801.3,42.6z"/>
<path class="st8" d="M838.1,36.5l-9.7,1L839.7-58c0,0,12.9-2.3,13.2-1.4C853.2-58.9,838.2,35.9,838.1,36.5z"/>
<polygon class="st8" points="712.3,-90.3 712,-46.7 789.1,-17.3 816.8,-54.5 "/>
<path class="st8" d="M883.5-62.7c-0.6-0.8-1.5-1.4-2.5-1.7l-98.4-32.8c-0.3-0.1-0.6-0.2-0.8-0.2c-0.3-0.1-0.6-0.1-1-0.1l0.2-1l1-0.7
	l23.4-16.9l78,23.9l0.1,27.1L883.5-62.7z"/>
<path class="st4" d="M716.2-20.3c0.1,0,0.2,0,0.3,0.1l30.2,9.9c0.8,0.3,1.2,1.1,1,1.9c-0.3,0.8-1.1,1.2-1.9,1l-30.2-9.9
	c-0.8-0.3-1.2-1.1-1-1.9C714.8-20,715.5-20.4,716.2-20.3L716.2-20.3z"/>
<circle class="st9" cx="838" cy="150.4" r="12"/>
<circle class="st9" cx="532" cy="194.4" r="12"/>
<circle class="st9" cx="782" cy="-202.6" r="12"/>
<path class="st5" d="M801.7-2.7c-5.9,2.6-12.7-0.1-15.3-6c-0.3-0.6-0.5-1.3-0.6-1.9l-41-4.1l13.5-16.6l36.9,6.5
	c6.4-1.1,12.4,3.2,13.4,9.6C809.5-10,806.6-4.8,801.7-2.7z"/>
<path class="st3" d="M776.5-9.3l-95.7-8.8l-0.1-0.2l-69.9-80c-9.5-14.6-6-34.1,8-44.5l0,0c14.6-10.8,35.2-7.7,46,7
	c0.8,1,1.5,2.1,2.1,3.2L710-57l67.6,27.1L776.5-9.3z"/>
<path class="st1" d="M1016.7-163.2c-2.4-17.4-5.4-36.2-17.7-48.7c-16-16.3-42.1-16.6-58.5-0.7c-0.4,0.4-0.9,0.9-1.3,1.3
	c-9,9.5-12.9,23-13.3,36s2.6,26,5.8,38.7c17.1,0.3,34.1-3,49.8-9.8c3.9-1.7,7.8-3.6,11.9-4.7c4.1-1.1,7.1,1.6,11,3.5l2.1-4.1
	c1.7,3.2,7.1,2.3,9-0.8C1017.6-155.6,1017.2-159.5,1016.7-163.2z"/>
<path class="st0" d="M948.9-65.9L879-64.4c-3.1-5.3-9.8-7.1-15.1-4c-5.3,3.1-7.1,9.8-4,15.1c2.9,4.9,9,6.9,14.2,4.5
	c9.3,0.5,81.8,10.8,86.1,4.2c4.4-6.7,27.8-30.5,27.8-30.5l-18-25.6L948.9-65.9z"/>
<circle class="st0" cx="965.9" cy="-178.8" r="32.8"/>
<path class="st10" d="M811.7-101.2"/>
<path class="st8" d="M1018.5-115.6c-3.9-7.7-5.7-17.2-14-19.7c-5.6-1.7-28.1,0.8-33.2,3.7c-8.4,4.7-0.8,13.6-5.8,21.9
	c-5.4,9-20.1,27.1-25.5,36.2c-3.7,6.2,8.8,24.4,6.8,31.4c-2,6.9-2.1,14.7,1.3,21.1c3.1,5.7-1.4,10.7,1.7,16.4
	c3.2,5.9,7.1,28.1,4.2,34.1l-2,6c19.8,1.2,36.5-22.5,56.3-25c4.9-0.6,10-1.4,14-4.3c5.9-4.2,8.3-11.8,9.8-18.9
	C1039.1-47.6,1034.3-83.8,1018.5-115.6z"/>
<path class="st0" d="M1048.2-34.3c-2.8-7.5-7.8-40.5-7.8-40.5l-31.3-0.9l15.3,37.8l-41.8,58.5c0,0,0.1,0.1,0.2,0.4
	c-6-1-11.7,3.1-12.7,9.2c-1,6,3.1,11.7,9.2,12.7c6,1,11.7-3.1,12.7-9.2c0-0.3,0.1-0.6,0.1-0.9c0.3,0.2,0.7,0.1,1-0.2
	C997.8,26.6,1051-26.7,1048.2-34.3z"/>
<path class="st8" d="M1051.4-55.1c-2.9-12.1-5.8-24.3-10.6-35.8s-11.8-22.3-21.5-30.1c-3.1-2.5-6.6-4.7-10.5-5.4
	c-3.9-0.8-8.3,0.1-11.1,3c-4.4,4.6-3.1,12-1.5,18.2c4.8,18.2,9.5,36.4,14.3,54.6c13.7-1.5,27.5-2.9,41.2-4.4L1051.4-55.1z"/>
<path class="st1" d="M1006.1-174.2c-1.2-7.9-2.5-16-5.3-23.4c-2.8-7.5-7.4-14.5-14-18.7c-10.4-6.7-23.9-5.4-35.5-1.6
	c-9,3-17.8,7.5-24.2,14.8c-6.4,7.3-9.9,17.7-7.6,27.2c12.4-2.9,24.9-5.9,37.3-8.8l-1.4,1c8.3,4.1,14.2,11.8,16,20.9
	c1.8,9.2-0.6,18.7-6.6,25.8c8.5-3,17-6,25.4-9c5.2-1.9,10.8-4,13.9-8.8C1008-160.3,1007.1-167.6,1006.1-174.2z"/>
</svg>
