<?xml version="1.0" encoding="utf-8"?>
<!-- Generator: Adobe Illustrator 19.0.0, SVG Export Plug-In . SVG Version: 6.00 Build 0)  -->
<svg version="1.1" id="Layer_1" xmlns="http://www.w3.org/2000/svg" xmlns:xlink="http://www.w3.org/1999/xlink" x="0px" y="0px"
	 viewBox="14 -14 128 128" style="enable-background:new 14 -14 128 128;" xml:space="preserve">
<style type="text/css">
	.st0{fill:#F72C25;}
</style>
<g>
	<g>
		<path class="st0" d="M78-14c-35.3,0-64,28.7-64,64s28.7,64,64,64s64-28.7,64-64S113.3-14,78-14z M78,104.5
			C48,104.5,23.5,80,23.5,50S48-4.5,78-4.5S132.5,20,132.5,50S108,104.5,78,104.5z"/>
	</g>
</g>
<g>
	<g>
		<g>
			<g>
				<path class="st0" d="M104.5,68.7c1,1,1.6,2.4,1.6,3.9c0,1.5-0.6,2.9-1.6,3.9c-1,1-2.4,1.6-3.9,1.6c-1.5,0-2.8-0.6-3.9-1.6
					L78,57.8L59.3,76.5c-1,1-2.4,1.6-3.9,1.6c-1.5,0-2.9-0.6-3.9-1.6c-1-1-1.6-2.4-1.6-3.9c0-1.5,0.6-2.8,1.6-3.9L70.2,50L51.5,31.3
					c-1-1-1.6-2.4-1.6-3.9c0-1.5,0.6-2.9,1.6-3.9c1-1,2.4-1.6,3.9-1.6c1.5,0,2.9,0.6,3.9,1.6L78,42.2l18.7-18.7c1-1,2.4-1.6,3.9-1.6
					c1.5,0,2.9,0.6,3.9,1.6c1,1,1.6,2.4,1.6,3.9c0,1.5-0.6,2.8-1.6,3.9L85.8,50L104.5,68.7z"/>
			</g>
		</g>
	</g>
</g>
</svg>
