<?xml version="1.0" encoding="utf-8"?>
<!-- Generator: Adobe Illustrator 19.0.0, SVG Export Plug-In . SVG Version: 6.00 Build 0)  -->
<svg version="1.1" id="Calque_1" xmlns="http://www.w3.org/2000/svg" xmlns:xlink="http://www.w3.org/1999/xlink" x="0px" y="0px"
	 viewBox="440 -162.8 979.3 424.8" style="enable-background:new 440 -162.8 979.3 424.8;" xml:space="preserve">
<style type="text/css">
	.st0{fill:#CCCCCC;}
	.st1{fill:#F2F2F2;}
	.st2{fill:#F72C25;}
	.st3{fill:#3F3D56;}
	.st4{fill:#FFFFFF;}
	.st5{fill:#E6E6E6;}
	.st6{fill:#FFB6B6;}
	.st7{fill:#E4E4E4;}
	.st8{fill:#2F2E41;}
</style>
<path class="st0" d="M1323.4,12.4H748.8c-5.1,0-9.2,4.1-9.2,9.2s4.1,9.2,9.2,9.2h16.3v220.1c0,5.1,4.1,9.2,9.2,9.2
	c5.1,0,9.2-4.1,9.2-9.2l0.1-220.1h461.2l42.5,220.1c0,5.1,4.1,9.2,9.2,9.2c5.1,0,9.2-4.1,9.2-9.2l2.7-220.1h15
	c5.1,0,9.2-4.1,9.2-9.2S1328.5,12.4,1323.4,12.4L1323.4,12.4z"/>
<path class="st1" d="M848.4-28.6v39h-97.6c-10.8,0.4-19.8-8-20.2-18.8c-0.4-10.8,8-19.8,18.8-20.2c0.5,0,0.9,0,1.4,0L848.4-28.6z"/>
<path class="st2" d="M850.8,10.1c0,0.8-0.7,1.5-1.5,1.5H749.1c-11.3,0-20.5-9.2-20.5-20.5c0-11.3,9.2-20.5,20.5-20.5h100.2
	c0.8,0,1.5,0.7,1.5,1.5c0,0.8-0.7,1.5-1.5,1.5c0,0,0,0,0,0H749.1c-9.7,0-17.5,7.9-17.5,17.6c0,9.7,7.8,17.5,17.5,17.5h100.2
	C850.1,8.6,850.8,9.3,850.8,10.1z"/>
<path class="st0" d="M848.4-19.6H743.5c-0.2,0-0.3-0.1-0.3-0.3c0-0.2,0.1-0.3,0.3-0.3l0,0h104.9c0.2,0,0.3,0.1,0.3,0.3
	C848.7-19.7,848.6-19.6,848.4-19.6z"/>
<path class="st0" d="M848.4-12.4H743.5c-0.2,0-0.3-0.1-0.3-0.3c0-0.2,0.1-0.3,0.3-0.3l0,0h104.9c0.2,0,0.3,0.1,0.3,0.3
	C848.7-12.5,848.6-12.4,848.4-12.4z"/>
<path class="st0" d="M848.4-5.2H743.5c-0.2,0-0.3-0.1-0.3-0.3c0-0.2,0.1-0.3,0.3-0.3l0,0h104.9c0.2,0,0.3,0.1,0.3,0.3
	C848.7-5.3,848.6-5.2,848.4-5.2z"/>
<path class="st0" d="M848.4,2H743.5c-0.2,0-0.3-0.1-0.3-0.3c0-0.2,0.1-0.3,0.3-0.3h104.9c0.2,0,0.3,0.1,0.3,0.3
	C848.7,1.9,848.6,2,848.4,2z"/>
<path class="st1" d="M830-69.6v39h-97.6c-10.8,0.4-19.8-8-20.2-18.8c-0.4-10.8,8-19.8,18.8-20.2c0.5,0,0.9,0,1.4,0H830z"/>
<path class="st3" d="M832.4-31c0,0.8-0.7,1.5-1.5,1.5H730.7c-11.3,0-20.5-9.2-20.5-20.5c0-11.3,9.2-20.5,20.5-20.5h100.2
	c0.8,0,1.5,0.7,1.5,1.5s-0.7,1.5-1.5,1.5H730.7c-9.7,0-17.5,7.9-17.5,17.5c0,9.7,7.8,17.5,17.5,17.5h100.2
	C831.7-32.5,832.4-31.8,832.4-31z"/>
<path class="st0" d="M830-60.6H725.1c-0.2,0-0.3-0.1-0.3-0.3c0-0.2,0.1-0.3,0.3-0.3l0,0H830c0.2,0,0.3,0.1,0.3,0.3
	C830.3-60.8,830.2-60.6,830-60.6z"/>
<path class="st0" d="M830-53.4H725.1c-0.2,0-0.3-0.1-0.3-0.3c0-0.2,0.1-0.3,0.3-0.3l0,0H830c0.2,0,0.3,0.1,0.3,0.3
	C830.3-53.6,830.2-53.4,830-53.4z"/>
<path class="st0" d="M830-46.2H725.1c-0.2,0-0.3-0.1-0.3-0.3c0-0.2,0.1-0.3,0.3-0.3l0,0H830c0.2,0,0.3,0.1,0.3,0.3
	C830.3-46.4,830.2-46.2,830-46.2z"/>
<path class="st0" d="M830-39H725.1c-0.2,0-0.3-0.1-0.3-0.3c0-0.2,0.1-0.3,0.3-0.3l0,0H830c0.2,0,0.3,0.1,0.3,0.3
	C830.3-39.2,830.2-39,830-39z"/>
<path class="st0" d="M943.5,150.3v-34c0-3.1-2.5-5.7-5.7-5.7H809.1c-3.1,0-5.7,2.5-5.7,5.7v34H943.5z"/>
<rect x="803.4" y="163" class="st0" width="140.1" height="43.9"/>
<path class="st0" d="M803.4,219.6v34c0,3.1,2.5,5.7,5.7,5.7h128.8c3.1,0,5.7-2.5,5.7-5.7v-34H803.4z"/>
<circle class="st4" cx="872.8" cy="131.9" r="4.2"/>
<circle class="st4" cx="872.8" cy="188.5" r="4.2"/>
<circle class="st4" cx="873" cy="243.9" r="4.2"/>
<path class="st1" d="M927.7,71.9v39h-97.6c-10.8,0.4-19.8-8-20.2-18.8c-0.4-10.8,8-19.8,18.8-20.2c0.5,0,0.9,0,1.4,0H927.7z"/>
<path class="st3" d="M930,110.6c0,0.8-0.7,1.5-1.5,1.5H828.3c-11.3,0-20.5-9.2-20.5-20.5c0-11.3,9.2-20.5,20.5-20.5l0,0h100.3
	c0.8,0,1.5,0.7,1.5,1.5c0,0.8-0.7,1.5-1.5,1.5c0,0,0,0,0,0H828.3c-9.7,0-17.5,7.9-17.5,17.6c0,9.7,7.8,17.5,17.5,17.5h100.2
	C929.4,109.1,930,109.7,930,110.6z"/>
<path class="st0" d="M927.7,80.9H822.8c-0.2,0-0.3-0.1-0.3-0.3c0-0.2,0.1-0.3,0.3-0.3l0,0h104.9c0.2,0,0.3,0.1,0.3,0.3
	C927.9,80.8,927.8,80.9,927.7,80.9L927.7,80.9z"/>
<path class="st0" d="M927.7,88.1H822.8c-0.2,0-0.3-0.1-0.3-0.3c0-0.2,0.1-0.3,0.3-0.3l0,0h104.9c0.2,0,0.3,0.1,0.3,0.3
	C927.9,88,927.8,88.1,927.7,88.1L927.7,88.1z"/>
<path class="st0" d="M927.7,95.3H822.8c-0.2,0-0.3-0.1-0.3-0.3c0-0.2,0.1-0.3,0.3-0.3h104.9c0.2,0,0.3,0.1,0.3,0.3
	C927.9,95.2,927.8,95.3,927.7,95.3L927.7,95.3z"/>
<path class="st0" d="M927.7,102.5H822.8c-0.2,0-0.3-0.1-0.3-0.3c0-0.2,0.1-0.3,0.3-0.3l0,0h104.9c0.2,0,0.3,0.1,0.3,0.3
	C927.9,102.3,927.8,102.5,927.7,102.5L927.7,102.5z"/>
<path class="st3" d="M813-82.6h-44.5c-0.4,0-0.8,0.1-1.2,0.3l-11.2,5.6c-1,0.4-1.5,1.6-1.1,2.7c0.2,0.5,0.6,0.9,1.1,1.1l11.2,5.6
	c0.4,0.2,0.8,0.3,1.2,0.3H813c1.3,0.1,2.4-0.9,2.5-2.2v-11.2C815.4-81.7,814.3-82.7,813-82.6z"/>
<path class="st2" d="M815.5-80.4v11.2c-0.1,1.3-1.2,2.2-2.5,2.2h-8.9v-15.6h8.9C814.3-82.7,815.4-81.7,815.5-80.4z"/>
<path class="st5" d="M546.4,137.6c11.6,4.1,24.6,1.8,34.1-6c12-10,15.7-26.6,18.7-41.9c3-15.1,6-30.2,9-45.3l-18.9,13
	c-13.6,9.3-27.5,19-36.9,32.5s-13.5,32-6,46.7"/>
<path class="st1" d="M548.1,192.4c-1.9-13.9-3.9-28-2.5-42.1c1.2-12.5,5-24.7,12.8-34.7c4.1-5.3,9.1-9.8,14.8-13.4
	c1.5-0.9,2.8,1.4,1.4,2.3c-9.8,6.2-17.4,15.4-21.7,26.2c-4.7,12-5.5,25.1-4.7,37.9c0.5,7.7,1.5,15.4,2.6,23.1
	c0.2,0.7-0.2,1.4-0.9,1.7C549,193.5,548.3,193.1,548.1,192.4L548.1,192.4z"/>
<path class="st5" d="M566.5,167.7c5,7.6,13.6,12,22.7,11.7c11.5-0.5,21-8.6,29.7-16.2l25.5-22.5l-16.9-0.8
	c-12.1-0.6-24.6-1.1-36.1,2.6s-22.2,12.7-24.3,24.7"/>
<path class="st1" d="M542.7,200.4c9.2-16.3,19.9-34.4,38.9-40.1c5.3-1.6,10.9-2.2,16.4-1.7c1.7,0.1,1.3,2.8-0.4,2.7
	c-9.2-0.8-18.5,1.7-26.1,6.9c-7.4,5-13.1,12-18,19.4c-3,4.5-5.6,9.3-8.3,14C544.3,203,541.8,201.9,542.7,200.4L542.7,200.4z"/>
<path class="st1" d="M527.9,217.5c0.6-7.3,5.3-13.7,12.1-16.5v-9.4h15.8v9.7c6.4,3,10.8,9.1,11.4,16.2l3.7,43.1h-46.7L527.9,217.5z"
	/>
<path class="st5" d="M1064.6,11.5l-4.7-2l-3.2-23.5h-42.9l-3.5,23.4l-4.2,2.1c-0.5,0.2-0.7,0.8-0.4,1.3c0.2,0.3,0.5,0.6,0.9,0.6
	h57.7c0.6,0,1-0.4,1-1C1065.2,12.1,1065,11.7,1064.6,11.5z"/>
<path class="st0" d="M1140.9-10.8H930.2c-2.3,0-4.2-1.9-4.2-4.2v-29.7h219V-15C1145-12.7,1143.2-10.8,1140.9-10.8z"/>
<path class="st3" d="M1145.2-30.7H925.8v-127.1c0-2.8,2.3-5,5-5h209.4c2.8,0,5,2.3,5,5L1145.2-30.7z"/>
<path class="st4" d="M1132.1-39.9H938.9c-2.1,0-3.9-1.7-3.9-3.9v-105.9c0-2.1,1.7-3.9,3.9-3.9h193.2c2.1,0,3.9,1.7,3.9,3.9v105.9
	C1136-41.7,1134.3-39.9,1132.1-39.9z"/>
<path class="st6" d="M1081.2-2.5c4.7-4.4,12.1-4.1,16.4,0.7c0.5,0.5,0.9,1,1.3,1.6l26.1-4.6l6.7,15.2l-37,6
	c-5.7,3.1-12.8,1-15.9-4.6C1076.3,7,1077.3,1.1,1081.2-2.5z"/>
<path class="st2" d="M1105.4,16.9l27.2-0.3l3.4,0l55.4-0.7c0,0,15.1-14.4,28.2-29.1l-1.8-13.3c-1.8-13-8.3-25-18.2-33.6
	c-18.8,12.5-29.7,37.4-29.7,37.4l-34.4,8.2l-3.4,0.8l-21.4,5.1L1105.4,16.9z"/>
<path class="st7" d="M1244.9,98.5h-50.9c0,2.2-55.6,3.9-55.6,3.9c-1.2,0.9-2.3,2-3.3,3.2c-3,3.5-4.6,8-4.6,12.6v3.2
	c0,10.9,8.8,19.7,19.7,19.7h94.6c10.9,0,19.7-8.8,19.7-19.7v-3.2C1264.6,107.4,1255.8,98.6,1244.9,98.5z"/>
<rect x="1187.4" y="140.4" class="st7" width="20.5" height="118.5"/>
<path class="st7" d="M1129,258.2c0,2.2,31.1,0.9,69.5,0.9c38.4,0,69.5,1.4,69.5-0.9s-31.1-19.8-69.5-19.8
	C1160.1,238.4,1129,255.9,1129,258.2z"/>
<polygon class="st6" points="1115.2,244.6 1099.9,244.6 1092.6,185.7 1115.2,185.7 "/>
<path class="st8" d="M1119.1,259.4l-49.3,0v-0.6c0-10.6,8.6-19.2,19.2-19.2h0l30.1,0L1119.1,259.4z"/>
<polygon class="st6" points="1070,244.6 1054.8,244.6 1047.5,185.7 1070,185.7 "/>
<path class="st8" d="M1073.9,259.4l-49.3,0v-0.6c0-10.6,8.6-19.2,19.2-19.2h0l30.1,0L1073.9,259.4z"/>
<circle class="st6" cx="1206.9" cy="-121.2" r="26.6"/>
<path class="st8" d="M1249.9,60.8c0,0,8.9,47.1-25,53.1c-33.9,6-82.9,10.2-82.9,10.2l-22,102.6l-29.5-2.6c0,0,3.9-123.5,13.6-133.1
	s70.7-38.6,70.7-38.6L1249.9,60.8z"/>
<path class="st8" d="M1183.6,41.1l-14.8,14.9c0,0-107.1,17.3-111.2,42c-6.2,37.3-13.6,118.6-13.6,118.6l32.2-2.4l12.6-92.3
	l51.5-11.7l58.6-31.9L1183.6,41.1z"/>
<path class="st8" d="M1232.4-137.1c-2.6-4.9-6-14.8-11.2-16.6c-2.9-1-6-1.6-9.1-1.9l-9,3.5l4.9-3.8c-1-0.1-1.9-0.1-2.9-0.1l-6.1,2.3
	l3.1-2.4c-5.7-0.1-11.5,0.5-15.9,4c-3.7,2.9-7.4,14.1-8,18.8c-0.6,4.5-0.4,9.1,0.7,13.5l1.5,1.5c0.5-1.2,0.9-2.5,1.2-3.8
	c1.1-5,4.3-9.3,8.7-11.8l0.1,0c2.6-1.5,5.7-1.4,8.7-1.3l14,0.5c3.4,0.1,7,0.3,9.6,2.5c1.7,1.6,3,3.5,3.9,5.6
	c1.3,2.6,3.9,12.6,3.9,12.6s1.4-1.9,2.1-0.5c1.1-3.7,1.8-7.4,2-11.2C1234.9-129.8,1234.2-133.6,1232.4-137.1z"/>
<path class="st6" d="M1325.4-109.5c-6.4,0.4-11.2,6-10.8,12.4c0,0.7,0.2,1.4,0.3,2l-21.4,15.8l6.4,15.3l29.9-22.7
	c6.1-2,9.5-8.5,7.6-14.7C1335.7-106.6,1330.7-109.9,1325.4-109.5L1325.4-109.5z"/>
<path class="st2" d="M1321.9-77.4l-53.6,59.5c0,0-25.6-8.2-45.4-17.1l-8.9-27.3c-2.1-6.3-2.9-13-2.6-19.7
	c27.5-7.3,59.4,19.9,59.4,19.9l40.1-31.4L1321.9-77.4z"/>
<path class="st2" d="M1197,65.2c-9.6-3.3-19.4-6.7-30.1-8l-0.5-0.1l0.1-0.4c11-38.7,8.3-63.5,2.9-100.7
	c-2.4-16.5,6.4-32.6,21.5-39.5l0.1,0l30.4-1.9l0.1,0l22.1,6.5c6.5,1.9,11,8,10.9,14.8c-0.2,12.2,0.3,25.9,0.8,40.4
	c1.2,32.5,2.5,66-4.6,87.8l0,0.1l-0.1,0.1c-6.5,5.3-14.7,8.2-23.1,8.1C1217.6,72.3,1207.4,68.8,1197,65.2z"/>
<path class="st0" d="M1417.9,262H441.4c-0.8,0-1.4-0.6-1.4-1.4s0.6-1.4,1.4-1.4h976.5c0.8,0,1.4,0.6,1.4,1.4S1418.7,262,1417.9,262z
	"/>
</svg>
