<?xml version="1.0" encoding="utf-8"?>
<!-- Generator: Adobe Illustrator 19.0.0, SVG Export Plug-In . SVG Version: 6.00 Build 0)  -->
<svg version="1.1" id="Layer_3" xmlns="http://www.w3.org/2000/svg" xmlns:xlink="http://www.w3.org/1999/xlink" x="0px" y="0px"
	 viewBox="-100 102 48 48" style="enable-background:new -100 102 48 48;" xml:space="preserve">

<g>
	<path class="st0" d="M-83.4,120.6c0.1,0,0.2,0,0.3,0c-0.1-0.6-0.1-1.2-0.1-1.8c0-5.1,3-9.5,7.3-11.5c-1.5-2.5-4.3-4.2-7.5-4.2
		c-4.9,0-8.8,3.9-8.8,8.8C-92.2,116.6-88.3,120.6-83.4,120.6z"/>
	<circle class="st0" cx="-70.5" cy="118.7" r="9.8"/>
	<path class="st0" d="M-62,128.4c-2.3,2-5.2,3.2-8.5,3.2c-3.3,0-6.2-1.2-8.5-3.2c-5.9,3.2-10,9.7-10,17.2c0,1.2,0.1,2.3,0.3,3.4
		h36.4c0.2-1.1,0.3-2.3,0.3-3.4C-52,138.1-56.1,131.6-62,128.4z"/>
	<path class="st0" d="M-80.8,126.2c-0.6-0.9-1.2-1.8-1.5-2.9c-0.3,0-0.7,0-1,0c-2.9,0-5.6-1.1-7.6-2.9c-5.3,2.9-9,8.7-9,15.5
		c0,1.1,0.1,2.1,0.3,3.1h9.1C-89.4,133.5-85.7,128.8-80.8,126.2z"/>
</g>
</svg>
